# xmcd
#
# Track frame offsets: 
#        150
#        12045
#        24900
#        38347
#        47762
#        62415
#        73437
#        85477
#        98905
#        113340
#        125960
#        138065
#        153265
#        166525
#        180807
#        193255
#        207135
#        221055
#
# Disc length: 3081 seconds
#
# Revision: 1
# Processed by: cddbd v1.5.2PL0 Copyright (c) Steve Scherf et al.
# Submitted via: ExactAudioCopy v0.95b4
#
DISCID=e40c0712
DTITLE=Howlin' Wolf - Howlin' At The Sun
DYEAR=1996
DGENRE=Blues
TTITLE0=Baby Ride With Me
TTITLE1=How Many More Years
TTITLE2=California Boogie
TTITLE3=Smile At Me
TTITLE4=My Troubles And Me
TTITLE5=Mr. Highway Man
TTITLE6=Chocolate Drop
TTITLE7=Everybody's In The Mood
TTITLE8=Color And Kind
TTITLE9=Bluebird
TTITLE10=Dorothy Mae
TTITLE11=Sweet Woman (I Got A Woman)
TTITLE12=Well That' s All Right
TTITLE13=Decoration Day
TTITLE14=Oh Red
TTITLE15=Drinkin' C.V. Wine
TTITLE16=My Last Affair
TTITLE17=Come Back Home
EXTD=
EXTT0=
EXTT1=
EXTT2=
EXTT3=
EXTT4=
EXTT5=
EXTT6=
EXTT7=
EXTT8=
EXTT9=
EXTT10=
EXTT11=
EXTT12=
EXTT13=
EXTT14=
EXTT15=
EXTT16=
EXTT17=
PLAYORDER=
